<?xml version="1.0" encoding="UTF-8"?> <svg xmlns="http://www.w3.org/2000/svg" width="646" height="268" viewBox="0 0 646 268" fill="none"> <g clip-path="url(#clip0_2203_23464)"> <path d="M54.1121 167H49.7326C48.486 167 47.2655 167.359 46.2158 168.036C45.1661 168.712 44.3311 169.678 43.8099 170.817L0 266.667H10.1965L22.489 239.287H77.0434L89.4754 266.667H99.6671L54.4294 167.692L54.1121 167ZM73.3417 230.937H26.3205L49.771 178.839L73.3417 230.937Z" fill="white"></path> <path d="M105.047 266.667H109.671C110.937 266.667 112.152 266.16 113.047 265.259C113.942 264.358 114.445 263.136 114.445 261.862V167H105.047V266.667Z" fill="white"></path> <path d="M246.543 167L203.993 241.019L161.442 167H153.645V266.671H162.908V186.904L201.18 253.154L201.522 253.749H206.329L244.947 186.629L245.081 266.671H254.345L254.201 167H246.543Z" fill="white"></path> <path d="M301.174 191.191C295.628 191.175 290.122 192.138 284.906 194.036C279.975 195.689 275.424 198.321 271.522 201.777L270.748 202.474L275.556 209.45L276.551 208.541C279.678 205.745 283.295 203.561 287.218 202.101C291.503 200.49 296.042 199.67 300.617 199.682C307.265 199.682 312.332 201.346 315.688 204.636C319.043 207.926 320.846 212.808 320.846 219.204V223.853H297.29C287.646 223.853 280.464 225.871 275.935 229.848C271.407 233.825 269.215 238.978 269.215 245.33C269.215 251.881 271.686 257.242 276.56 261.267C281.435 265.292 288.098 267.228 296.357 267.228C302.693 267.228 308.222 266.013 312.803 263.609C316.044 261.873 318.883 259.468 321.135 256.55V266.667H330.124V219.475C330.124 210.282 327.581 203.209 322.582 198.467C317.577 193.634 310.38 191.191 301.174 191.191ZM320.851 231.653V243.854C318.837 248.775 315.808 252.563 311.847 255.19C307.885 257.817 303.025 259.163 297.309 259.163C291.247 259.163 286.516 257.885 283.262 255.389C280.031 252.82 278.454 249.438 278.454 245.059C278.454 240.85 279.849 237.652 282.709 235.281C285.699 232.862 290.656 231.653 297.439 231.653H320.851Z" fill="white"></path> <path d="M388.255 228.784C383.783 227.305 379.204 226.173 374.559 225.397C369.56 224.391 365.593 223.462 362.824 222.654C360.391 221.873 358.145 220.593 356.229 218.894C354.527 217.264 353.695 215.024 353.695 212.121C353.695 208.41 355.209 205.497 358.32 203.209C361.43 200.921 366.382 199.687 372.819 199.687C376.632 199.684 380.427 200.228 384.087 201.303C387.57 202.302 390.858 203.889 393.813 205.996L394.875 206.76L399.202 199.145L398.361 198.516C395.404 196.31 391.558 194.515 386.933 193.194C382.387 191.876 377.68 191.202 372.949 191.191C363.969 191.191 356.892 193.194 351.916 197.142C346.941 201.09 344.422 206.151 344.422 212.256C344.422 217.269 345.782 221.28 348.465 224.182C351.06 226.994 354.312 229.109 357.926 230.337C362.495 231.809 367.166 232.941 371.901 233.723C376.708 234.638 380.554 235.518 383.241 236.336C385.649 237.015 387.862 238.261 389.698 239.969C391.39 241.508 392.207 243.584 392.207 246.317C392.207 250.188 390.659 253.154 387.462 255.355C384.265 257.556 379.112 258.742 372.117 258.742C367.269 258.754 362.453 257.936 357.878 256.323C353.431 254.711 349.739 252.675 346.912 250.275L345.835 249.36L341.479 256.99L342.186 257.634C345.239 260.416 349.513 262.743 354.897 264.552C360.365 266.363 366.087 267.275 371.843 267.252C381.078 267.252 388.371 265.355 393.524 261.606C398.813 257.774 401.471 252.587 401.471 246.191C401.471 241.353 400.159 237.483 397.567 234.677C395.028 231.927 391.818 229.895 388.255 228.784V228.784Z" fill="white"></path> <path d="M453.338 255.157C450.588 257.658 447.189 258.877 442.94 258.877C438.873 258.877 435.767 257.784 433.738 255.665C431.738 253.395 430.724 250.014 430.724 245.611V200.093H453.651V191.743H430.714V175.897H425.854C424.686 175.897 423.565 176.364 422.739 177.195C421.912 178.026 421.447 179.153 421.446 180.329V191.743H408.187V200.093H421.446V246.303C421.446 252.805 423.282 257.992 426.902 261.737C430.527 265.38 435.685 267.228 442.238 267.228C445.134 267.238 448.015 266.794 450.776 265.912C453.394 265.05 455.798 263.634 457.828 261.761L458.516 261.108L454.391 254.184L453.338 255.157Z" fill="white"></path> <path d="M515.306 196.087C509.984 192.836 503.878 191.191 497.153 191.191C490.733 191.111 484.414 192.804 478.885 196.087C473.434 199.372 468.983 204.097 466.015 209.75C462.991 215.459 461.458 222.005 461.458 229.214C461.458 236.52 463.088 243.124 466.313 248.852C469.58 254.522 474.318 259.19 480.019 262.356C485.788 265.593 492.437 267.233 499.792 267.233C505.213 267.281 510.587 266.209 515.58 264.083C520.358 262.1 524.588 258.981 527.906 254.992L528.55 254.208L522.94 247.798L522.06 248.896C519.497 252.084 516.196 254.59 512.445 256.192C508.049 257.947 503.337 258.759 498.611 258.576C493.885 258.393 489.249 257.218 485 255.128C480.758 252.88 477.196 249.524 474.688 245.412C472.289 241.355 470.898 236.774 470.635 232.059H532.506L532.728 228.929C532.728 221.715 531.141 215.164 528.031 209.465C525.132 203.884 520.719 199.245 515.306 196.087V196.087ZM470.818 224.27C471.223 220.007 472.535 215.882 474.664 212.174C476.91 208.321 480.151 205.153 484.043 203.006C489.995 199.575 497.042 198.616 503.685 200.332C510.329 202.049 516.045 206.306 519.618 212.198C521.823 215.874 523.151 220.014 523.497 224.294L470.818 224.27Z" fill="white"></path> <path d="M562.625 195.657C559.149 197.698 556.207 200.544 554.044 203.959V191.742H545.054V266.667H554.318V227.671C554.318 219.03 556.491 212.237 560.784 207.476C565.077 202.715 571.067 200.219 578.571 200.219L581.508 200.466V191.191H580.326C573.437 191.191 567.471 192.696 562.625 195.657Z" fill="white"></path> <path d="M641.75 234.652C639.209 231.91 635.999 229.886 632.438 228.784C627.965 227.305 623.386 226.173 618.742 225.397C613.737 224.391 609.771 223.462 607.007 222.654C604.57 221.873 602.32 220.591 600.401 218.89C598.695 217.254 597.868 215.019 597.868 212.116C597.868 208.405 599.382 205.493 602.493 203.204C605.675 200.867 610.555 199.682 616.992 199.682C620.805 199.679 624.6 200.223 628.26 201.298C631.743 202.297 635.031 203.884 637.986 205.991L639.048 206.755L643.375 199.14L642.534 198.511C639.582 196.305 635.736 194.515 631.106 193.189C626.561 191.873 621.856 191.201 617.126 191.191C608.151 191.191 601.074 193.194 596.099 197.142C591.123 201.09 588.604 206.151 588.604 212.256C588.604 217.269 589.965 221.28 592.647 224.182C595.244 226.993 598.495 229.108 602.108 230.337C606.676 231.808 611.345 232.94 616.078 233.723C620.886 234.638 624.732 235.514 627.424 236.336C629.83 237.018 632.043 238.263 633.88 239.969C635.568 241.508 636.39 243.584 636.39 246.317C636.39 250.188 634.842 253.154 631.645 255.355C628.448 257.556 623.289 258.742 616.299 258.742C611.451 258.754 606.636 257.936 602.06 256.323C597.613 254.711 593.921 252.675 591.094 250.275L590.013 249.36L585.686 256.981L586.393 257.624C589.445 260.411 593.724 262.738 599.099 264.543C604.568 266.353 610.292 267.265 616.049 267.242C625.285 267.242 632.577 265.346 637.731 261.596C643.019 257.764 645.678 252.578 645.678 246.182C645.634 241.339 644.341 237.463 641.75 234.652Z" fill="white"></path> </g> <mask id="mask0_2203_23464" style="mask-type:alpha" maskUnits="userSpaceOnUse" x="255" y="0" width="135" height="135"> <circle cx="322.5" cy="67.5" r="67.5" fill="#465555"></circle> </mask> <g mask="url(#mask0_2203_23464)"> <path d="M373.06 51.0809C370.413 30.6356 367.642 26.6684 363.805 26.7277C360.253 26.7809 358.678 31.0619 357.606 35.2421C356.481 39.6178 355.486 45.9474 354.645 54.0474C352.94 70.5908 351.993 93.3987 351.892 120.227C351.892 120.819 352.117 121.364 352.111 121.938C329.7 121.316 311.345 113.578 297.975 98.9171C288.069 88.0579 280.97 73.7527 276.908 56.404C274.204 44.8524 273.03 32.9957 273.414 21.1382C271.254 23.4241 269.256 25.8576 267.434 28.4211C267.647 38.3035 268.881 48.1374 271.117 57.7658C275.439 76.1211 283.007 91.2908 293.617 102.908C308.372 119.084 328.226 127.386 352.875 127.776C354.568 126.924 356.218 126.002 357.825 125.011V124.934C357.825 98.3369 358.648 75.2803 360.193 58.2632C361.455 44.4198 362.917 37.8415 363.894 34.7862C365.801 40.4823 369.566 58.5119 371.437 113.957C373.475 111.805 375.372 109.525 377.116 107.13C376.21 83.8658 374.824 64.652 373.06 51.0809Z" fill="#F75B4C"></path> <path d="M314.317 8.28955C303.334 8.28955 293.167 24.158 283.232 56.7948C277.571 75.381 273.278 95.1336 270.395 110.428C271.965 112.327 273.637 114.14 275.404 115.857C278.264 100.249 282.776 78.679 288.916 58.5178C297.466 30.3573 306.732 14.2106 314.317 14.2106C321.902 14.2106 330.789 30.3395 338.73 58.4646C346.107 84.5172 350.72 112.938 352.845 127.794C354.74 126.835 356.584 125.791 358.376 124.662C356.096 109.149 351.513 81.9415 344.408 56.8422C335.177 24.1757 325.324 8.28955 314.317 8.28955Z" fill="white"></path> </g> <path fill-rule="evenodd" clip-rule="evenodd" d="M322.5 132.363C358.323 132.363 387.363 103.323 387.363 67.5C387.363 31.677 358.323 2.63672 322.5 2.63672C286.677 2.63672 257.637 31.677 257.637 67.5C257.637 103.323 286.677 132.363 322.5 132.363ZM322.5 135C359.779 135 390 104.779 390 67.5C390 30.2208 359.779 0 322.5 0C285.221 0 255 30.2208 255 67.5C255 104.779 285.221 135 322.5 135Z" fill="white"></path> <defs> <clipPath id="clip0_2203_23464"> <rect width="645.654" height="100.228" fill="white" transform="translate(0 167)"></rect> </clipPath> </defs> </svg> 